<svg xmlns="http://www.w3.org/2000/svg" width="72.924" height="28.226" viewBox="0 0 72.924 28.226">
  <path id="Caminho_23" data-name="Caminho 23" d="M869.6,599.151a36.456,36.456,0,0,0,10.164-1.117c-2.114,1.578-3.981,4.451-4.191,6.645a20.523,20.523,0,0,0-5.973-5.528m12.409,11.834c-.891-2.858-2.205-9.261,3.452-13.231,4.04-2.837,16.3-6.186,22.875-8.594l4.721-6.4a101.625,101.625,0,0,1-15.681,6.313c-11.883,3.641-18.992,5.8-28.149,5.98-6.589.129-6.681-2.98-.268-8.557a205.511,205.511,0,0,1-28.825,8.692c10.309.289,18.137,2.387,22.841,5.12,6.7,3.89,8.324,7.976,9.08,10.677Z" transform="translate(-840.133 -582.759)" fill="#001489" fill-rule="evenodd"/>
</svg>
